<svg xmlns="http://www.w3.org/2000/svg" width="1967.88" height="714.718" viewBox="0 0 1967.88 714.718">
  <g id="Group_189" data-name="Group 189" transform="translate(-28 -81.732)">
    <g id="Group_186" data-name="Group 186">
      <g id="Group_182" data-name="Group 182">
        <path id="Path_225" data-name="Path 225" d="M1107.613,319.233v85.778q0,43.656-4.021,54.856t-14.935,18.765a42.32,42.32,0,0,1-24.7,7.563q-12.063,0-19.913-5.649a28.627,28.627,0,0,1-10.818-15.317q-2.973-9.666-2.968-52.559V319.233h-29.448c-8.042,25.969-16.32,55.176-24.355,87.364v41.3q0,28.721,7.276,44.995a53.124,53.124,0,0,0,23.55,25.274q16.272,9,36.763,9a81.887,81.887,0,0,0,38.2-9.382,78.358,78.358,0,0,0,29.2-25.657v30.444h49.974V319.233Z"/>
      </g>
      <path id="Path_226" data-name="Path 226" d="M1290.772,319.233v42.889H1254.01v81.949q0,24.891,1.053,29.008a11.79,11.79,0,0,0,4.787,6.8,15.16,15.16,0,0,0,9.094,2.681q7.469,0,21.637-5.17l4.595,41.74q-18.773,8.043-42.506,8.042a67.4,67.4,0,0,1-26.232-4.882q-11.679-4.883-17.136-12.637t-7.563-20.966q-1.724-9.378-1.724-37.911V362.122h-24.7V319.233h24.7v-40.4l53.995-31.4v71.8Z"/>
      <path id="Path_227" data-name="Path 227" d="M1296.053,418.031a110,110,0,0,1,13.212-51.888,90.68,90.68,0,0,1,37.432-38.294q24.22-13.211,54.09-13.211,46.145,0,75.631,29.965t29.486,75.726q0,46.145-29.773,76.492t-74.961,30.348a118.076,118.076,0,0,1-53.324-12.637,86.686,86.686,0,0,1-38.581-37.049Q1296.053,453.071,1296.053,418.031ZM1351.2,420.9q0,30.256,14.36,46.336t35.422,16.084q21.062,0,35.326-16.084t14.264-46.719q0-29.868-14.264-45.952t-35.326-16.084q-21.062,0-35.422,16.084T1351.2,420.9Z"/>
      <g id="Group_183" data-name="Group 183">
        <path id="Path_228" data-name="Path 228" d="M1718.791,575.131c-.561,2.577-1.228,5.507-1.811,8.169-.372.041-.544-.771-.837-1.07a16.552,16.552,0,0,0-.594,5.3c-.481.358-.678-.5-1.061-.575-.638,1.084-1.119,2.2-1.647,3.313-.449-.4-.649-1.674-1.166-2.451a22.947,22.947,0,0,0-2.175,4.167c-1.163-1.83-1.212-4.345-2.481-6.566-.889,1.182-.4,2.79-.43,4.142a29.994,29.994,0,0,0-.016,4.238c-2.928,1.269-2.774,3.264-3.986,4.935-.523-.714-1.215-.7-1.743-1.387a33.653,33.653,0,0,0-1.248,6.233c-.768-.58-1.217-2.022-1.608-2.881a14.086,14.086,0,0,0-2.375,2.708c-1.48-1.113-2.7-3.349-4.172-4.462a66.664,66.664,0,0,0-.567,7.045c-.626-.115-1.091-.908-1.614-1.467a37.913,37.913,0,0,0-.016,7.937c-.717-.046-1.292-.678-1.965-.9-.052,2.273.326,4.645.433,6.954a1.4,1.4,0,0,1-1.106-.224,1.561,1.561,0,0,0-.957-.263,40.181,40.181,0,0,0,.328,5.084,7.419,7.419,0,0,1-.922-3.48,10.784,10.784,0,0,0-1.921.309c-.637-1.926-1.354-3.871-2.216-5.852a10.441,10.441,0,0,0-2.024,2.137c-1.51-1.295-2.832-3.382-4.282-4.92-.615.687-.7,1.5-1.277,2.2-2.206-1.42-4.46-2.623-6.684-3.964a54.711,54.711,0,0,0,1.444,7.74c-.1.345-.358.219-.629.093a.906.906,0,0,0-.449-.129,61.192,61.192,0,0,0,.556,8.287,18.774,18.774,0,0,0-2.356.753,32.343,32.343,0,0,0,1.469,5.783c-1.337.454-2.484.08-3.794.413,2.5,2.791,5.113,5.078,7.638,7.778-2.87.632-5.685,1.04-8.582,1.79.944,1.127,1.354,2.763,2.495,3.74.952.82,2.667.856,3.9,1.461,2.653,1.3,4.133,3.74,6.64,6.456,3.482,1.379,7.488.548,11.381.173-7.494,5.852-16,11.466-24.054,17.189.1.17.211.34.315.509a12.709,12.709,0,0,1,2.41,1.327c7.846-5.915,15.8-11.8,23.528-17.745.791,4.309,4.23,5.343,7.034,7.092a63.435,63.435,0,0,1,5.4,3.876c.4-.522-.492-1.346-.517-1.972,3.759.361,7.288,1.7,10.878,2.777a8.781,8.781,0,0,0-.7-2.561c1.485.005,2.727,1.045,4.3.687-.359-1.1-1.831-1.453-2.624-2.249,1.305-.31,3.343.27,4.936.287a10.914,10.914,0,0,0-.786-2.684c2.712-.588,5.267-.5,7.973-1.062-.851-.541-1.746-.891-2.613-1.378a42.887,42.887,0,0,1,6.161-.293c.17-.1.339-.208.509-.315a12.093,12.093,0,0,1-1.215-2.243c1.812-.449,3.562-.646,5.354-1.026.011-.835-1.009-1.245-1.34-2.161,2.418-.575,4.919-1.5,7.343-2.085.044-.643-1.07-1.554-.8-2.148a7.432,7.432,0,0,0,4.884-3.2c-.375-1.026-1.045-.785-1.436-1.751,2.093-1.023,4.071-1.576,6.1-2.372-.522-1.012-2.232-.985-3.132-1.934,1.652-.709,3.247-1.174,4.881-1.789-2.657-.575-5.36-.963-8.06-1.352a8.8,8.8,0,0,0,.309-1.776,15.026,15.026,0,0,0-4.364-.229c-2.355.1-4.714.2-6.675-1.385,1.529-1.236,2.443-2.618,3.95-3.857-.684-.635-1.576-.392-2.249-1.073,1.554-.831,2.471-1.811,3.992-2.651.129-.563-1.412-.424-1.294-.957,1.245-1.013,2.386-2.05,3.756-3.032.06-.591-.8-.366-1.089-.911,1.718-1.808,3.1-3.693,4.67-5.537a11.379,11.379,0,0,0-2.5-.914,4.283,4.283,0,0,1,.848-1.759,25.373,25.373,0,0,0-4.935-.29c-.372-.413-.028-.66-.3-1.051a30.147,30.147,0,0,0-3.667.337,7.938,7.938,0,0,1,1.483-2.153c-.451-.08-.87-.307-1.313-.419.769-1.234,1.83-2.4,2.7-3.609a8.9,8.9,0,0,0-2.618.039c.257-2.334.736-4.613,1.184-6.9-1.466.889-3.08,2.684-4.618,3.918a38.354,38.354,0,0,0-1.376-4.783c.55-2.662.047-5.573-.506-8.495a1.536,1.536,0,0,0-1.179.375c.309-1.63.251-3.351.626-4.965-2.462-.222-2.109-3.084-2.747-5a13.4,13.4,0,0,0-2.9-.137c-.254-1.838-.043-3.565-.358-5.417-.99.276-.947,1.65-1.122,2.457" fill="#ec1e24"/>
      </g>
      <path id="Path_229" data-name="Path 229" d="M170.071,470.111H28V405.969L170.071,237.092h67.971V409.607h35.231v60.5H238.042v52.463H170.071Zm0-60.5V321.27L95,409.607Z" fill="#ec1e24"/>
      <path id="Path_230" data-name="Path 230" d="M277.982,381.078q0-80.031,28.817-112.01t87.788-31.976q28.334,0,46.528,6.989t29.677,18.19a96.9,96.9,0,0,1,18.094,23.551,122.717,122.717,0,0,1,10.627,28.816,269.065,269.065,0,0,1,7.85,65.482q0,76.4-25.848,111.819t-89.034,35.422q-35.425,0-57.249-11.3a92.674,92.674,0,0,1-35.8-33.124q-10.152-15.51-15.8-42.411T277.982,381.078Zm77.354.191q0,53.611,9.478,73.237t27.476,19.626a28.8,28.8,0,0,0,20.583-8.329q8.712-8.33,12.828-26.327t4.117-56.1q0-55.9-9.478-75.152t-28.433-19.242q-19.343,0-27.955,19.625T355.336,381.269Z" fill="#ec1e24"/>
      <path id="Path_231" data-name="Path 231" d="M682.925,237.092V522.574H604.039V335.508a239.83,239.83,0,0,1-37.049,23.551q-17.907,9-44.9,17.232V312.34q39.822-12.825,61.845-30.827A125.791,125.791,0,0,0,618.4,237.092Z" fill="#ec1e24"/>
      <g id="Group_184" data-name="Group 184">
        <path id="Path_232" data-name="Path 232" d="M971.2,168.262,690.07,441.119v89.625H597.729L323.971,796.45l163.388-16.339L675.249,575.48,838.725,541.8l-30.038,153.9,106.2-5.446c27.232-322.277,126.989-521.986,126.989-521.986ZM865.842,449.617,778.086,465.24,928.649,289.429Z"/>
      </g>
    </g>
    <g id="Group_187" data-name="Group 187">
      <path id="Path_242" data-name="Path 242" d="M1099.759,651.071a213.9,213.9,0,0,1-47.835,5.607c-23.571,0-42.981-3.939-58.233-13.487-13.4-8.486-21.722-22.125-21.722-38.037.231-30.459,32.121-52.735,84.346-52.735,18.025,0,32.121,2.576,38.823,4.7l-4.854,10.76c-8.318-2.425-18.717-4.395-34.431-4.395-37.9,0-62.624,15.457-62.624,41.068,0,25.913,23.8,41.219,60.082,41.219,13.172,0,22.184-1.213,26.8-2.728V612.58h-31.657V601.972h51.3Z" fill="#ec1e24"/>
      <path id="Path_243" data-name="Path 243" d="M1130.49,554.843a317.1,317.1,0,0,1,38.591-2.122c21.491,0,35.356,2.577,45.062,8.335,7.857,4.546,12.247,11.517,12.247,19.4,0,13.488-12.941,22.429-29.347,26.065v.455c12.016,2.728,19.18,10,22.877,20.609,5.084,14.245,8.781,24.1,12.016,28.036h-20.8c-2.543-2.879-6.008-11.669-10.4-24.4-4.623-14.092-12.941-19.4-31.2-19.851h-18.95v44.25h-20.1Zm20.1,46.523h20.567c21.491,0,35.124-7.728,35.124-19.4,0-13.184-14.557-18.943-35.817-19.094-9.706,0-16.639.606-19.874,1.212Z" fill="#ec1e24"/>
      <path id="Path_244" data-name="Path 244" d="M1388.606,603.488c0,35.157-32.583,53.8-72.33,53.8-41.133,0-70.019-20.913-70.019-51.827,0-32.43,30.735-53.646,72.33-53.646C1361.107,551.812,1388.606,573.18,1388.606,603.488Zm-120.858,1.666c0,21.822,18.025,41.371,49.683,41.371,31.891,0,49.915-19.245,49.915-42.431,0-20.307-16.176-41.522-49.683-41.522C1284.387,562.572,1267.748,582.726,1267.748,605.154Z" fill="#ec1e24"/>
      <path id="Path_245" data-name="Path 245" d="M1434.819,553.48v60.464c0,22.882,15.483,32.581,36.28,32.581,23.108,0,37.9-10,37.9-32.581V553.48h20.336v59.555c0,31.369-25.189,44.25-58.927,44.25-31.89,0-55.923-11.972-55.923-43.644V553.48Z" fill="#ec1e24"/>
      <path id="Path_246" data-name="Path 246" d="M1564.222,554.692a352.846,352.846,0,0,1,38.59-1.971c19.874,0,34.433,3.032,43.675,8.487,8.551,4.849,13.634,12.275,13.634,21.367,0,9.244-4.159,16.518-12.016,21.822-10.63,7.425-27.962,11.214-47.6,11.214a104.715,104.715,0,0,1-16.176-.909v40.916h-20.1Zm20.1,49.25A101.642,101.642,0,0,0,1600.963,605c24.264,0,39.054-7.729,39.054-21.822,0-13.487-14.558-20-36.742-20a127.482,127.482,0,0,0-18.949,1.061Z" fill="#ec1e24"/>
    </g>
    <text id="RV" transform="translate(1504.88 517.732)" stroke="#000" stroke-miterlimit="10" stroke-width="15" font-size="389.761" font-family="SegoeUI, Segoe UI"><tspan x="0" y="0">RV</tspan></text>
    <g id="Group_188" data-name="Group 188">
      <path id="Path_247" data-name="Path 247" d="M51.712,182.759H35.977v-5.713h38.3v5.713H58.466v46.32H51.712Z"/>
      <path id="Path_248" data-name="Path 248" d="M79.272,174.267h6.754v23.314h.154a12.565,12.565,0,0,1,4.835-4.786,13.845,13.845,0,0,1,6.908-1.93c4.99,0,12.972,3.088,12.972,15.98v22.234h-6.754V207.617c0-6.021-2.226-11.117-8.6-11.117a9.715,9.715,0,0,0-9.058,6.794,8.284,8.284,0,0,0-.46,3.243v22.542H79.272Z"/>
      <path id="Path_249" data-name="Path 249" d="M125.636,211.631c.153,9.188,5.986,12.97,12.741,12.97a24.3,24.3,0,0,0,10.285-1.93l1.152,4.864a29.942,29.942,0,0,1-12.358,2.316c-11.436,0-18.268-7.566-18.268-18.837s6.6-20.149,17.424-20.149c12.127,0,15.351,10.731,15.351,17.6a25.7,25.7,0,0,1-.23,3.164Zm19.8-4.863c.077-4.323-1.766-11.039-9.365-11.039-6.83,0-9.824,6.33-10.361,11.039Z"/>
    </g>
  </g>
</svg>
